#!OML:ASF F:\VICON\USERDATA\INSTALL\rory3\rory3.ASF
:FULLY-SPECIFIED
:DEGREES
699
root -1.23881 16.6348 26.8743 213.621 149.485 -172.726
lowerback -21.9415 -3.13405 6.82772
upperback -11.7963 -5.15249 3.33857
thorax -1.00223 -2.71723 -1.304
lowerneck 5.01724 -19.0044 -15.0726
upperneck 8.73091 -26.6588 8.8552
head 5.0081 -13.4405 3.40478
rclavicle -3.58309e-014 1.90833e-014
rhumerus -50.0918 6.35545 -69.0224
rradius 17.4722
rwrist -13.4549
rhand -3.31157 17.2821
rfingers 7.12502
rthumb 22.4149 -11.4374
lclavicle -3.58309e-014 1.90833e-014
lhumerus -237.779 -188.876 241.344
lradius 29.7058
lwrist 1.73844
lhand 11.5813 19.6101
lfingers 7.12502
lthumb 36.6246 45.7707
rfemur 121.344 -191.43 -164.507
rtibia 44.1191
rfoot -57.417 -35.0087
rtoes 45.3717
lfemur -16.1763 0.401769 -26.8117
ltibia 36.7091
lfoot 6.23522 39.4818
ltoes 19.3868
700
root -1.24036 16.6383 26.8773 213.54 149.309 -172.987
lowerback -21.9869 -3.0636 7.16936
upperback -11.8801 -5.11707 3.33754
thorax -1.10907 -2.71893 -1.48352
lowerneck 5.19224 -18.9747 -15.1073
upperneck 8.78812 -26.6464 8.85001
head 5.00153 -13.4415 3.42396
rclavicle -3.04638e-014 1.59028e-014
rhumerus -50.2831 5.97434 -68.8088
rradius 17.4468
rwrist -13.0195
rhand -4.18388 17.813
rfingers 7.12502
rthumb 21.5774 -11.0049
lclavicle -3.04638e-014 1.59028e-014
lhumerus -237.875 -188.672 241.465
lradius 29.5756
lwrist 1.64449
lhand 11.121 18.9682
lfingers 7.12502
lthumb 36.1888 45.238
rfemur 121.338 -191.432 -164.207
rtibia 44.0763
rfoot -57.3293 -35.1263
rtoes 45.3243
lfemur -16.3203 0.738344 -26.5169
ltibia 36.7697
lfoot 9.31966 38.9507
ltoes 14.9046
701
root -1.24251 16.6404 26.8778 213.538 149.334 -173.072
lowerback -22.0301 -3.04111 7.23489
upperback -11.9169 -5.10025 3.3648
thorax -1.13222 -2.71355 -1.48798
lowerneck 5.25914 -18.955 -15.1667
upperneck 8.86069 -26.6267 8.7695
head 5.00833 -13.4378 3.41395
rclavicle -1.00386e-013 3.97569e-014
rhumerus -50.2762 5.81332 -68.6199
rradius 17.4742
rwrist -12.8753
rhand -4.54087 17.7241
rfingers 7.12502
rthumb 21.2345 -11.1328
lclavicle -1.00386e-013 3.97569e-014
lhumerus -237.925 -188.434 241.851
lradius 29.4935
lwrist 1.74841
lhand 10.7883 18.4274
lfingers 7.12502
lthumb 35.8737 44.7749
rfemur 121.286 -191.509 -164.148
rtibia 44.0823
rfoot -57.2929 -35.1416
rtoes 45.2569
lfemur -16.3937 1.03369 -26.4668
ltibia 36.7651
lfoot 11.1928 38.3662
ltoes 12.2338
702
root -1.24756 16.6421 26.8788 213.682 149.453 -172.967
lowerback -22.0584 -3.05456 7.05478
upperback -12.0167 -5.078 3.35073
thorax -1.20916 -2.69782 -1.39626
lowerneck 5.36712 -18.946 -15.1211
upperneck 8.9427 -26.6121 8.57881
head 4.98368 -13.4382 3.36902
rclavicle -7.45443e-014 -3.65764e-014
rhumerus -50.2616 5.69055 -68.4632
rradius 17.4072
rwrist -13.0437
rhand -4.54642 17.4251
rfingers 7.12502
rthumb 21.2292 -11.4324
lclavicle -7.45443e-014 -3.65764e-014
lhumerus -238.05 -188.055 242.354
lradius 29.6652
lwrist 1.94316
lhand 10.7208 18.4987
lfingers 7.12502
lthumb 35.8097 44.8617
rfemur 121.135 -191.553 -164.301
rtibia 44.1283
rfoot -57.3027 -35.1304
rtoes 45.2295
lfemur -16.4367 1.0319 -26.609
ltibia 36.7086
lfoot 9.83956 38.5809
ltoes 14.7805
703
root -1.25 16.6424 26.878 213.902 149.633 -172.719
lowerback -22.0513 -3.0508 6.85541
upperback -12.1361 -5.02454 3.24997
thorax -1.32987 -2.67046 -1.37672
lowerneck 5.49682 -18.9113 -15.0518
upperneck 8.97933 -26.5744 8.50598
head 4.95205 -13.4244 3.36064
rclavicle -5.55603e-014 3.33958e-014
rhumerus -50.2731 5.52518 -68.3221
rradius 17.4202
rwrist -13.1933
rhand -4.68378 17.2354
rfingers 7.12502
rthumb 21.0972 -11.6369
lclavicle -5.55603e-014 3.33958e-014
lhumerus -238.237 -187.652 242.823
lradius 29.9143
lwrist 2.0452
lhand 10.4179 18.1189
lfingers 7.12502
lthumb 35.5226 44.5513
rfemur 120.914 -191.539 -164.636
rtibia 44.2286
rfoot -57.2621 -35.2079
rtoes 45.0113
lfemur -16.483 1.02084 -26.9455
ltibia 36.5831
lfoot 11.6637 38.2562
ltoes 10.7599
